<svg width="50" height="31" viewBox="0 0 50 31" fill="none" xmlns="http://www.w3.org/2000/svg">
<path d="M1.13031 28V25.228L9.59031 16.156C10.7663 14.884 11.6063 13.732 12.1103 12.7C12.6383 11.668 12.9023 10.624 12.9023 9.568C12.9023 6.832 11.2943 5.464 8.07831 5.464C5.63031 5.464 3.43431 6.388 1.49031 8.236L0.158313 5.392C1.11831 4.456 2.34231 3.712 3.83031 3.16C5.31831 2.584 6.86631 2.296 8.47431 2.296C11.0903 2.296 13.0943 2.896 14.4863 4.096C15.9023 5.296 16.6103 7.012 16.6103 9.244C16.6103 10.756 16.2383 12.232 15.4943 13.672C14.7743 15.112 13.6343 16.648 12.0743 18.28L5.81031 24.868H17.6183V28H1.13031ZM21.7443 30.376L18.9722 29.548L28.2243 0.819998L31.0323 1.648L21.7443 30.376ZM40.7478 28.324C39.0438 28.324 37.4238 28.072 35.8878 27.568C34.3518 27.04 33.0678 26.308 32.0358 25.372L33.3318 22.492C34.4598 23.404 35.6238 24.076 36.8238 24.508C38.0238 24.94 39.2958 25.156 40.6398 25.156C42.3678 25.156 43.6758 24.784 44.5638 24.04C45.4758 23.296 45.9318 22.228 45.9318 20.836C45.9318 19.444 45.4758 18.412 44.5638 17.74C43.6758 17.068 42.3798 16.732 40.6758 16.732H36.7518V13.6H40.3158C41.8278 13.6 43.0158 13.216 43.8798 12.448C44.7678 11.68 45.2118 10.624 45.2118 9.28C45.2118 8.056 44.8038 7.12 43.9878 6.472C43.1718 5.8 42.0078 5.464 40.4958 5.464C37.9278 5.464 35.6838 6.388 33.7638 8.236L32.4678 5.392C33.4518 4.408 34.6758 3.652 36.1398 3.124C37.6278 2.572 39.1758 2.296 40.7838 2.296C43.3278 2.296 45.3078 2.884 46.7238 4.06C48.1398 5.212 48.8477 6.82 48.8477 8.884C48.8477 10.276 48.4878 11.5 47.7678 12.556C47.0718 13.612 46.0998 14.38 44.8518 14.86C46.3638 15.244 47.5278 15.988 48.3438 17.092C49.1598 18.172 49.5678 19.504 49.5678 21.088C49.5678 23.32 48.7758 25.084 47.1918 26.38C45.6318 27.676 43.4838 28.324 40.7478 28.324Z" fill="#5594BE"/>
</svg>
